<?xml version="1.0" standalone="no"?>
<!DOCTYPE svg PUBLIC "-//W3C//DTD SVG 20010904//EN"
 "http://www.w3.org/TR/2001/REC-SVG-20010904/DTD/svg10.dtd">
<svg version="1.0" xmlns="http://www.w3.org/2000/svg"
 width="533.000000pt" height="566.000000pt" viewBox="0 0 533.000000 566.000000"
 preserveAspectRatio="xMidYMid meet">

<g transform="translate(0.000000,566.000000) scale(0.100000,-0.100000)"
fill="#000000" stroke="none">
<path d="M2525 4334 c-199 -31 -330 -70 -470 -141 -285 -145 -508 -373 -653
-669 -212 -431 -213 -957 -1 -1388 202 -411 558 -694 989 -787 148 -32 391
-32 537 -1 433 94 789 377 991 788 213 431 213 956 1 1387 -202 411 -560 697
-987 787 -94 20 -338 34 -407 24z m291 -455 c495 -76 860 -592 813 -1147 -23
-264 -131 -504 -308 -683 -163 -163 -353 -255 -575 -278 -273 -27 -543 73
-747 278 -91 92 -147 173 -206 297 -167 353 -132 801 88 1125 55 82 176 203
258 258 208 141 426 189 677 150z"/>
<path d="M4005 1711 c-154 -71 -150 -280 7 -346 47 -19 89 -19 136 0 160 67
160 283 0 350 -49 20 -94 19 -143 -4z"/>
</g>
</svg>
